# xmcd
#
# Track frame offsets:
#	150
#	15208
#	30914
#	51661
#	67695
#	87481
#	108154
#	142242
#	160487
#
# Disc length: 2481 seconds
#
# Revision: 1
# Processed by: cddbd v1.5.2PL0 Copyright (c) Steve Scherf et al.
# Submitted via: audiograbber 1.83.01
#
DISCID=6e09af09
DTITLE=Freddie King - Larger Than Life
DYEAR=1975
DGENRE=Blues
TTITLE0=It's Better To Have (And Don't Need)
TTITLE1=You Can Run But You Can't Hide
TTITLE2=Woke Up This Morning
TTITLE3=It's Your Move
TTITLE4=Boogie Bump
TTITLE5=Meet Me In The Morning
TTITLE6=The Things I Used To Do
TTITLE7=Ain't That I Don't Love You
TTITLE8=Have You Ever Loved A Woman
EXTD=
EXTT0=
EXTT1=
EXTT2=
EXTT3=
EXTT4=
EXTT5=
EXTT6=
EXTT7=
EXTT8=
PLAYORDER=
